<mxfile host="Electron" modified="2025-06-12T07:21:21.967Z" agent="Mozilla/5.0 (Windows NT 10.0; Win64; x64) AppleWebKit/537.36 (KHTML, like Gecko) draw.io/24.6.1 Chrome/124.0.6367.207 Electron/30.0.6 Safari/537.36" etag="fKNmsV2UGg2IsA6SrxRu" version="24.6.1" type="device">
  <diagram name="Страница — 1" id="BM2AUWaHNeBtpSH9eD8n">
    <mxGraphModel dx="1207" dy="817" grid="1" gridSize="10" guides="1" tooltips="1" connect="1" arrows="1" fold="1" page="1" pageScale="1" pageWidth="3300" pageHeight="2339" math="0" shadow="0">
      <root>
        <mxCell id="0" />
        <mxCell id="1" parent="0" />
        <mxCell id="OHpmsJjtwYlktyDVjjFm-1" value="" style="rounded=0;whiteSpace=wrap;html=1;" parent="1" vertex="1">
          <mxGeometry x="200" y="80" width="960" height="400" as="geometry" />
        </mxCell>
        <mxCell id="OHpmsJjtwYlktyDVjjFm-2" value="шапка" style="rounded=0;whiteSpace=wrap;html=1;" parent="1" vertex="1">
          <mxGeometry x="200" y="80" width="960" height="80" as="geometry" />
        </mxCell>
        <mxCell id="OHpmsJjtwYlktyDVjjFm-4" value="1" style="rounded=0;whiteSpace=wrap;html=1;" parent="1" vertex="1">
          <mxGeometry x="200" y="160" width="480" height="160" as="geometry" />
        </mxCell>
        <mxCell id="OHpmsJjtwYlktyDVjjFm-5" value="2" style="rounded=0;whiteSpace=wrap;html=1;" parent="1" vertex="1">
          <mxGeometry x="200" y="320" width="300" height="160" as="geometry" />
        </mxCell>
        <mxCell id="OHpmsJjtwYlktyDVjjFm-22" value="" style="rounded=0;whiteSpace=wrap;html=1;" parent="1" vertex="1">
          <mxGeometry x="190" y="1390" width="960" height="540" as="geometry" />
        </mxCell>
        <mxCell id="OHpmsJjtwYlktyDVjjFm-23" value="" style="rounded=0;whiteSpace=wrap;html=1;" parent="1" vertex="1">
          <mxGeometry x="190" y="1350" width="960" height="110" as="geometry" />
        </mxCell>
        <mxCell id="OHpmsJjtwYlktyDVjjFm-24" value="" style="rounded=0;whiteSpace=wrap;html=1;" parent="1" vertex="1">
          <mxGeometry x="190" y="1830" width="960" height="100" as="geometry" />
        </mxCell>
        <mxCell id="OHpmsJjtwYlktyDVjjFm-25" value="" style="rounded=0;whiteSpace=wrap;html=1;" parent="1" vertex="1">
          <mxGeometry x="230" y="1650" width="270" height="160" as="geometry" />
        </mxCell>
        <mxCell id="OHpmsJjtwYlktyDVjjFm-26" value="" style="rounded=0;whiteSpace=wrap;html=1;" parent="1" vertex="1">
          <mxGeometry x="530" y="1650" width="260" height="160" as="geometry" />
        </mxCell>
        <mxCell id="OHpmsJjtwYlktyDVjjFm-27" value="" style="rounded=0;whiteSpace=wrap;html=1;" parent="1" vertex="1">
          <mxGeometry x="190" y="1890" width="960" height="40" as="geometry" />
        </mxCell>
        <mxCell id="OHpmsJjtwYlktyDVjjFm-28" value="" style="rounded=0;whiteSpace=wrap;html=1;" parent="1" vertex="1">
          <mxGeometry x="190" y="1350" width="120" height="110" as="geometry" />
        </mxCell>
        <mxCell id="OHpmsJjtwYlktyDVjjFm-29" value="" style="rounded=0;whiteSpace=wrap;html=1;" parent="1" vertex="1">
          <mxGeometry x="830" y="1650" width="260" height="160" as="geometry" />
        </mxCell>
        <mxCell id="OHpmsJjtwYlktyDVjjFm-30" value="" style="rounded=0;whiteSpace=wrap;html=1;" parent="1" vertex="1">
          <mxGeometry x="230" y="1480" width="270" height="160" as="geometry" />
        </mxCell>
        <mxCell id="OHpmsJjtwYlktyDVjjFm-31" value="" style="rounded=0;whiteSpace=wrap;html=1;" parent="1" vertex="1">
          <mxGeometry x="530" y="1480" width="260" height="160" as="geometry" />
        </mxCell>
        <mxCell id="OHpmsJjtwYlktyDVjjFm-32" value="" style="rounded=0;whiteSpace=wrap;html=1;" parent="1" vertex="1">
          <mxGeometry x="830" y="1480" width="260" height="160" as="geometry" />
        </mxCell>
        <mxCell id="OHpmsJjtwYlktyDVjjFm-43" value="подвал" style="rounded=0;whiteSpace=wrap;html=1;" parent="1" vertex="1">
          <mxGeometry x="200" y="580" width="960" height="80" as="geometry" />
        </mxCell>
        <mxCell id="OHpmsJjtwYlktyDVjjFm-45" value="3" style="rounded=0;whiteSpace=wrap;html=1;" parent="1" vertex="1">
          <mxGeometry x="680" y="160" width="480" height="80" as="geometry" />
        </mxCell>
        <mxCell id="9K1WxuNbJsjxcqvCIvK5-1" value="4" style="rounded=0;whiteSpace=wrap;html=1;" parent="1" vertex="1">
          <mxGeometry x="680" y="240" width="480" height="80" as="geometry" />
        </mxCell>
        <mxCell id="9K1WxuNbJsjxcqvCIvK5-2" value="5" style="rounded=0;whiteSpace=wrap;html=1;" parent="1" vertex="1">
          <mxGeometry x="500" y="320" width="340" height="80" as="geometry" />
        </mxCell>
        <mxCell id="9K1WxuNbJsjxcqvCIvK5-3" value="6" style="rounded=0;whiteSpace=wrap;html=1;" parent="1" vertex="1">
          <mxGeometry x="500" y="400" width="340" height="80" as="geometry" />
        </mxCell>
        <mxCell id="9K1WxuNbJsjxcqvCIvK5-4" value="" style="rounded=0;whiteSpace=wrap;html=1;" parent="1" vertex="1">
          <mxGeometry x="1740" y="10" width="960" height="400" as="geometry" />
        </mxCell>
        <mxCell id="9K1WxuNbJsjxcqvCIvK5-5" value="шапка" style="rounded=0;whiteSpace=wrap;html=1;" parent="1" vertex="1">
          <mxGeometry x="1740" y="10" width="960" height="80" as="geometry" />
        </mxCell>
        <mxCell id="9K1WxuNbJsjxcqvCIvK5-6" value="1" style="rounded=0;whiteSpace=wrap;html=1;" parent="1" vertex="1">
          <mxGeometry x="1740" y="90" width="210" height="160" as="geometry" />
        </mxCell>
        <mxCell id="9K1WxuNbJsjxcqvCIvK5-7" value="2" style="rounded=0;whiteSpace=wrap;html=1;" parent="1" vertex="1">
          <mxGeometry x="1740" y="250" width="210" height="160" as="geometry" />
        </mxCell>
        <mxCell id="9K1WxuNbJsjxcqvCIvK5-8" value="1_3" style="rounded=0;whiteSpace=wrap;html=1;" parent="1" vertex="1">
          <mxGeometry x="2490" y="90" width="210" height="160" as="geometry" />
        </mxCell>
        <mxCell id="9K1WxuNbJsjxcqvCIvK5-9" value="2_4" style="rounded=0;whiteSpace=wrap;html=1;" parent="1" vertex="1">
          <mxGeometry x="2490" y="250" width="210" height="160" as="geometry" />
        </mxCell>
        <mxCell id="9K1WxuNbJsjxcqvCIvK5-10" value="3" style="rounded=0;whiteSpace=wrap;html=1;" parent="1" vertex="1">
          <mxGeometry x="1740" y="410" width="960" height="80" as="geometry" />
        </mxCell>
        <mxCell id="9K1WxuNbJsjxcqvCIvK5-11" value="1_1" style="rounded=0;whiteSpace=wrap;html=1;" parent="1" vertex="1">
          <mxGeometry x="1950" y="90" width="540" height="80" as="geometry" />
        </mxCell>
        <mxCell id="9K1WxuNbJsjxcqvCIvK5-12" value="1_2" style="rounded=0;whiteSpace=wrap;html=1;" parent="1" vertex="1">
          <mxGeometry x="1950" y="170" width="540" height="80" as="geometry" />
        </mxCell>
        <mxCell id="9K1WxuNbJsjxcqvCIvK5-13" value="2_2" style="rounded=0;whiteSpace=wrap;html=1;" parent="1" vertex="1">
          <mxGeometry x="1950" y="250" width="540" height="80" as="geometry" />
        </mxCell>
        <mxCell id="9K1WxuNbJsjxcqvCIvK5-14" value="2_3" style="rounded=0;whiteSpace=wrap;html=1;" parent="1" vertex="1">
          <mxGeometry x="1950" y="330" width="540" height="80" as="geometry" />
        </mxCell>
        <mxCell id="9K1WxuNbJsjxcqvCIvK5-16" value="9" style="rounded=0;whiteSpace=wrap;html=1;" parent="1" vertex="1">
          <mxGeometry x="690" y="480" width="470" height="100" as="geometry" />
        </mxCell>
        <mxCell id="9K1WxuNbJsjxcqvCIvK5-17" value="7" style="rounded=0;whiteSpace=wrap;html=1;" parent="1" vertex="1">
          <mxGeometry x="840" y="320" width="320" height="160" as="geometry" />
        </mxCell>
        <mxCell id="9K1WxuNbJsjxcqvCIvK5-18" value="8" style="rounded=0;whiteSpace=wrap;html=1;" parent="1" vertex="1">
          <mxGeometry x="200" y="480" width="490" height="100" as="geometry" />
        </mxCell>
      </root>
    </mxGraphModel>
  </diagram>
</mxfile>
